<svg width="319" height="75" viewBox="0 0 319 75" fill="none" xmlns="http://www.w3.org/2000/svg">
<path d="M5.82031 62.6914V13.2578H21.2305V19.4687H13.8672V56.4609H21.2305V62.6914H5.82031Z" fill="black"/>
<rect x="28" y="28" width="232" height="22" fill="#FF7DFF" fill-opacity="0.5"/>
<path d="M42.7727 23.9091V53H34.875V23.9091H42.7727ZM54.4702 40.7273V53H46.6293V31.1818H54.0724V35.3295H54.2997C54.7732 33.947 55.6065 32.8627 56.7997 32.0767C58.0024 31.2907 59.4039 30.8977 61.0043 30.8977C62.5478 30.8977 63.8878 31.2528 65.0241 31.9631C66.17 32.6638 67.0554 33.6297 67.6804 34.8608C68.3149 36.0919 68.6274 37.4981 68.6179 39.0795V53H60.777V40.7273C60.7865 39.6477 60.5118 38.8002 59.9531 38.1847C59.4039 37.5691 58.6368 37.2614 57.652 37.2614C57.008 37.2614 56.4446 37.4034 55.9616 37.6875C55.4882 37.9621 55.1236 38.3598 54.8679 38.8807C54.6122 39.392 54.4796 40.0076 54.4702 40.7273ZM85.5568 31.1818V36.8636H70.9545V31.1818H85.5568ZM73.7386 53V30.5568C73.7386 28.7576 74.0606 27.2661 74.7045 26.0824C75.3485 24.8987 76.2576 24.0133 77.4318 23.4261C78.6061 22.839 79.9886 22.5455 81.5795 22.5455C82.5739 22.5455 83.5398 22.6212 84.4773 22.7727C85.4242 22.9242 86.125 23.0568 86.5795 23.1705L85.4432 28.7955C85.1591 28.7102 84.8277 28.6439 84.4489 28.5966C84.0701 28.5398 83.7386 28.5114 83.4545 28.5114C82.7159 28.5114 82.2188 28.6676 81.9631 28.9801C81.7074 29.2926 81.5795 29.7045 81.5795 30.2159V53H73.7386ZM98.4297 53.3977C96.0623 53.3977 94.0357 52.929 92.3501 51.9915C90.6645 51.0445 89.3719 49.7282 88.4723 48.0426C87.5727 46.3475 87.1229 44.3826 87.1229 42.1477C87.1229 39.9129 87.5727 37.9527 88.4723 36.267C89.3719 34.572 90.6645 33.2557 92.3501 32.3182C94.0357 31.3712 96.0623 30.8977 98.4297 30.8977C100.797 30.8977 102.824 31.3712 104.509 32.3182C106.195 33.2557 107.487 34.572 108.387 36.267C109.287 37.9527 109.737 39.9129 109.737 42.1477C109.737 44.3826 109.287 46.3475 108.387 48.0426C107.487 49.7282 106.195 51.0445 104.509 51.9915C102.824 52.929 100.797 53.3977 98.4297 53.3977ZM98.4865 47.6023C99.1494 47.6023 99.7223 47.3797 100.205 46.9347C100.688 46.4896 101.062 45.8551 101.327 45.0312C101.593 44.2074 101.725 43.2273 101.725 42.0909C101.725 40.9451 101.593 39.965 101.327 39.1506C101.062 38.3267 100.688 37.6922 100.205 37.2472C99.7223 36.8021 99.1494 36.5795 98.4865 36.5795C97.7857 36.5795 97.1844 36.8021 96.6825 37.2472C96.1806 37.6922 95.7971 38.3267 95.532 39.1506C95.2668 39.965 95.1342 40.9451 95.1342 42.0909C95.1342 43.2273 95.2668 44.2074 95.532 45.0312C95.7971 45.8551 96.1806 46.4896 96.6825 46.9347C97.1844 47.3797 97.7857 47.6023 98.4865 47.6023ZM112.805 23.9091H122.634L129.396 40.3864H129.737L136.498 23.9091H146.327V53H138.6V36.1818H138.373L131.896 52.7727H127.237L120.759 36.0682H120.532V53H112.805V23.9091ZM156.263 53.3409C154.871 53.3409 153.64 53.1136 152.57 52.6591C151.51 52.1951 150.676 51.4943 150.07 50.5568C149.464 49.6193 149.161 48.4261 149.161 46.9773C149.161 45.7841 149.365 44.7661 149.772 43.9233C150.179 43.071 150.747 42.375 151.477 41.8352C152.206 41.2955 153.053 40.8835 154.019 40.5994C154.995 40.3153 156.046 40.1307 157.173 40.0455C158.394 39.9508 159.374 39.8371 160.113 39.7045C160.861 39.5625 161.401 39.3684 161.732 39.1222C162.064 38.8665 162.229 38.5303 162.229 38.1136V38.0568C162.229 37.4886 162.012 37.053 161.576 36.75C161.14 36.447 160.582 36.2955 159.9 36.2955C159.152 36.2955 158.541 36.4612 158.067 36.7926C157.603 37.1146 157.324 37.6117 157.229 38.2841H150.013C150.108 36.9583 150.53 35.7367 151.278 34.6193C152.035 33.4924 153.138 32.5928 154.587 31.9205C156.036 31.2386 157.845 30.8977 160.013 30.8977C161.576 30.8977 162.978 31.0824 164.218 31.4517C165.459 31.8116 166.514 32.3182 167.386 32.9716C168.257 33.6155 168.92 34.3731 169.374 35.2443C169.838 36.1061 170.07 37.0436 170.07 38.0568V53H162.741V49.9318H162.57C162.135 50.7462 161.604 51.4044 160.979 51.9062C160.364 52.4081 159.658 52.7727 158.863 53C158.077 53.2273 157.21 53.3409 156.263 53.3409ZM158.82 48.3977C159.417 48.3977 159.976 48.2746 160.496 48.0284C161.027 47.7822 161.458 47.4271 161.789 46.9631C162.121 46.4991 162.286 45.9356 162.286 45.2727V43.4545C162.078 43.5398 161.855 43.6203 161.619 43.696C161.391 43.7718 161.145 43.8428 160.88 43.9091C160.624 43.9754 160.35 44.0369 160.056 44.0938C159.772 44.1506 159.474 44.2027 159.161 44.25C158.555 44.3447 158.058 44.5009 157.67 44.7188C157.291 44.9271 157.007 45.1875 156.817 45.5C156.638 45.803 156.548 46.1439 156.548 46.5227C156.548 47.1288 156.761 47.5928 157.187 47.9148C157.613 48.2367 158.157 48.3977 158.82 48.3977ZM173.817 53V31.1818H181.43V35.3295H181.658C182.055 33.7955 182.685 32.6733 183.547 31.9631C184.418 31.2528 185.436 30.8977 186.601 30.8977C186.942 30.8977 187.278 30.9261 187.609 30.983C187.95 31.0303 188.277 31.1013 188.589 31.196V37.8864C188.201 37.7538 187.723 37.6544 187.155 37.5881C186.587 37.5218 186.099 37.4886 185.692 37.4886C184.925 37.4886 184.233 37.6638 183.618 38.0142C183.012 38.3551 182.534 38.8381 182.183 39.4631C181.833 40.0786 181.658 40.803 181.658 41.6364V53H173.817ZM198.206 47.8295L198.263 38.5114H199.286L204.57 31.1818H213.376L204.513 42.6023H202.297L198.206 47.8295ZM191.161 53V23.9091H199.001V53H191.161ZM204.626 53L199.626 44.3636L204.74 38.7955L213.604 53H204.626ZM224.974 53.3977C222.645 53.3977 220.637 52.9527 218.952 52.0625C217.276 51.1629 215.983 49.875 215.074 48.1989C214.174 46.5133 213.724 44.4962 213.724 42.1477C213.724 39.8939 214.179 37.9242 215.088 36.2386C215.997 34.553 217.28 33.2415 218.938 32.304C220.595 31.3665 222.55 30.8977 224.804 30.8977C226.452 30.8977 227.943 31.1534 229.278 31.6648C230.614 32.1761 231.755 32.9195 232.702 33.8949C233.649 34.8608 234.378 36.035 234.889 37.4176C235.401 38.8002 235.656 40.358 235.656 42.0909V43.9091H216.168V39.5909H228.44C228.431 38.9659 228.27 38.4167 227.957 37.9432C227.654 37.4602 227.242 37.0862 226.722 36.821C226.21 36.5464 225.628 36.4091 224.974 36.4091C224.34 36.4091 223.758 36.5464 223.227 36.821C222.697 37.0862 222.271 37.4555 221.949 37.929C221.636 38.4025 221.471 38.9564 221.452 39.5909V44.25C221.452 44.9508 221.598 45.5758 221.892 46.125C222.186 46.6742 222.607 47.1051 223.156 47.4176C223.705 47.7301 224.368 47.8864 225.145 47.8864C225.685 47.8864 226.177 47.8106 226.622 47.6591C227.077 47.5076 227.465 47.2898 227.787 47.0057C228.109 46.7121 228.346 46.3617 228.497 45.9545H235.656C235.41 47.4697 234.828 48.786 233.909 49.9034C232.991 51.0114 231.774 51.8731 230.259 52.4886C228.753 53.0947 226.991 53.3977 224.974 53.3977ZM238.856 53V31.1818H246.469V35.3295H246.697C247.094 33.7955 247.724 32.6733 248.586 31.9631C249.457 31.2528 250.475 30.8977 251.64 30.8977C251.981 30.8977 252.317 30.9261 252.648 30.983C252.989 31.0303 253.316 31.1013 253.629 31.196V37.8864C253.24 37.7538 252.762 37.6544 252.194 37.5881C251.626 37.5218 251.138 37.4886 250.731 37.4886C249.964 37.4886 249.272 37.6638 248.657 38.0142C248.051 38.3551 247.573 38.8381 247.222 39.4631C246.872 40.0786 246.697 40.803 246.697 41.6364V53H238.856Z" fill="black"/>
<path d="M281.68 13.2578V62.6914H266.27V56.4609H273.633V19.4687H266.27V13.2578H281.68ZM300.415 36.5L300.903 28.9414L294.575 33.1797L291.958 28.5703L298.774 25.25L291.958 21.9297L294.575 17.3203L300.903 21.5586L300.415 14H305.669L305.161 21.5586L311.489 17.3203L314.106 21.9297L307.31 25.25L314.106 28.5703L311.489 33.1797L305.161 28.9414L305.669 36.5H300.415Z" fill="black"/>
</svg>
