<svg width="195" height="33" viewBox="0 0 195 33" fill="none" xmlns="http://www.w3.org/2000/svg">
<path d="M2.85724 30.2667V5.99929H10.4222V9.04829H6.80753V27.2081H10.4222V30.2667H2.85724Z" fill="black"/>
<rect x="17" y="11" width="146" height="14" fill="#FF7DFF" fill-opacity="0.5"/>
<path d="M27.108 8.81818V27H22.1719V8.81818H27.108ZM34.4189 19.3295V27H29.5183V13.3636H34.1703V15.956H34.3123C34.6083 15.0919 35.1291 14.4142 35.8748 13.9229C36.6265 13.4317 37.5024 13.1861 38.5027 13.1861C39.4674 13.1861 40.3049 13.408 41.0151 13.8519C41.7312 14.2899 42.2846 14.8936 42.6752 15.663C43.0718 16.4324 43.2671 17.3113 43.2612 18.2997V27H38.3606V19.3295C38.3665 18.6548 38.1949 18.1251 37.8457 17.7404C37.5024 17.3557 37.023 17.1634 36.4075 17.1634C36.005 17.1634 35.6529 17.2521 35.351 17.4297C35.0551 17.6013 34.8272 17.8499 34.6674 18.1754C34.5076 18.495 34.4248 18.8797 34.4189 19.3295ZM53.848 13.3636V16.9148H44.7216V13.3636H53.848ZM46.4616 27V12.973C46.4616 11.8485 46.6629 10.9163 47.0653 10.1765C47.4678 9.43667 48.036 8.88329 48.7699 8.51633C49.5038 8.14938 50.3679 7.96591 51.3622 7.96591C51.9837 7.96591 52.5874 8.01326 53.1733 8.10795C53.7652 8.20265 54.2031 8.28551 54.4872 8.35653L53.777 11.8722C53.5994 11.8189 53.3923 11.7775 53.1555 11.7479C52.9188 11.7124 52.7116 11.6946 52.5341 11.6946C52.0724 11.6946 51.7617 11.7923 51.6019 11.9876C51.4421 12.1829 51.3622 12.4403 51.3622 12.7599V27H46.4616ZM61.8936 27.2486C60.4139 27.2486 59.1473 26.9556 58.0938 26.3697C57.0403 25.7778 56.2325 24.9551 55.6702 23.9016C55.1079 22.8422 54.8268 21.6141 54.8268 20.2173C54.8268 18.8205 55.1079 17.5954 55.6702 16.5419C56.2325 15.4825 57.0403 14.6598 58.0938 14.0739C59.1473 13.482 60.4139 13.1861 61.8936 13.1861C63.3732 13.1861 64.6398 13.482 65.6933 14.0739C66.7468 14.6598 67.5547 15.4825 68.1169 16.5419C68.6792 17.5954 68.9603 18.8205 68.9603 20.2173C68.9603 21.6141 68.6792 22.8422 68.1169 23.9016C67.5547 24.9551 66.7468 25.7778 65.6933 26.3697C64.6398 26.9556 63.3732 27.2486 61.8936 27.2486ZM61.9291 23.6264C62.3434 23.6264 62.7014 23.4873 63.0033 23.2092C63.3051 22.931 63.5389 22.5344 63.7046 22.0195C63.8704 21.5046 63.9532 20.892 63.9532 20.1818C63.9532 19.4657 63.8704 18.8531 63.7046 18.3441C63.5389 17.8292 63.3051 17.4326 63.0033 17.1545C62.7014 16.8763 62.3434 16.7372 61.9291 16.7372C61.4911 16.7372 61.1153 16.8763 60.8016 17.1545C60.4879 17.4326 60.2482 17.8292 60.0825 18.3441C59.9168 18.8531 59.8339 19.4657 59.8339 20.1818C59.8339 20.892 59.9168 21.5046 60.0825 22.0195C60.2482 22.5344 60.4879 22.931 60.8016 23.2092C61.1153 23.4873 61.4911 23.6264 61.9291 23.6264ZM70.8779 8.81818H77.0214L81.2472 19.1165H81.4603L85.6862 8.81818H91.8296V27H87.0001V16.4886H86.858L82.8097 26.858H79.8978L75.8495 16.4176H75.7075V27H70.8779V8.81818ZM98.0397 27.2131C97.1697 27.2131 96.4002 27.071 95.7314 26.7869C95.0686 26.4969 94.5477 26.0589 94.1689 25.473C93.7902 24.8871 93.6008 24.1413 93.6008 23.2358C93.6008 22.4901 93.728 21.8538 93.9825 21.3271C94.237 20.7944 94.5921 20.3594 95.0479 20.022C95.5036 19.6847 96.0333 19.4272 96.637 19.2496C97.2466 19.0721 97.9036 18.9567 98.6079 18.9034C99.3714 18.8442 99.9839 18.7732 100.446 18.6903C100.913 18.6016 101.251 18.4802 101.458 18.3263C101.665 18.1665 101.768 17.9564 101.768 17.696V17.6605C101.768 17.3054 101.632 17.0331 101.36 16.8438C101.088 16.6544 100.739 16.5597 100.312 16.5597C99.8448 16.5597 99.4631 16.6632 99.1672 16.8704C98.8772 17.0716 98.7026 17.3823 98.6434 17.8026H94.1334C94.1926 16.974 94.456 16.2105 94.9236 15.5121C95.397 14.8078 96.0866 14.2455 96.9921 13.8253C97.8976 13.3991 99.0281 13.1861 100.383 13.1861C101.36 13.1861 102.236 13.3015 103.011 13.5323C103.787 13.7572 104.447 14.0739 104.991 14.4822C105.536 14.8847 105.95 15.3582 106.234 15.9027C106.524 16.4413 106.669 17.0272 106.669 17.6605V27H102.088V25.0824H101.981C101.709 25.5914 101.378 26.0027 100.987 26.3164C100.602 26.6301 100.161 26.858 99.6643 27C99.1731 27.142 98.6315 27.2131 98.0397 27.2131ZM99.6377 24.1236C100.011 24.1236 100.36 24.0466 100.685 23.8928C101.017 23.7389 101.286 23.5169 101.493 23.2269C101.7 22.9369 101.804 22.5848 101.804 22.1705V21.0341C101.674 21.0874 101.535 21.1377 101.387 21.185C101.245 21.2324 101.091 21.2768 100.925 21.3182C100.765 21.3596 100.594 21.3981 100.41 21.4336C100.233 21.4691 100.046 21.5017 99.8508 21.5312C99.472 21.5904 99.1613 21.6881 98.9186 21.8242C98.6818 21.9544 98.5043 22.1172 98.3859 22.3125C98.2735 22.5019 98.2172 22.715 98.2172 22.9517C98.2172 23.3305 98.3504 23.6205 98.6167 23.8217C98.8831 24.023 99.2234 24.1236 99.6377 24.1236ZM109.01 27V13.3636H113.769V15.956H113.911C114.16 14.9972 114.553 14.2958 115.092 13.8519C115.636 13.408 116.273 13.1861 117.001 13.1861C117.214 13.1861 117.424 13.2038 117.631 13.2393C117.844 13.2689 118.048 13.3133 118.243 13.3725V17.554C118.001 17.4711 117.702 17.409 117.347 17.3675C116.992 17.3261 116.687 17.3054 116.432 17.3054C115.953 17.3054 115.521 17.4149 115.136 17.6339C114.757 17.8469 114.459 18.1488 114.24 18.5394C114.021 18.9241 113.911 19.3769 113.911 19.8977V27H109.01ZM124.254 23.7685L124.289 17.9446H124.928L128.231 13.3636H133.735L128.195 20.5014H126.811L124.254 23.7685ZM119.85 27V8.81818H124.751V27H119.85ZM128.267 27L125.142 21.6023L128.338 18.1222L133.877 27H128.267ZM140.984 27.2486C139.528 27.2486 138.273 26.9704 137.22 26.4141C136.172 25.8518 135.364 25.0469 134.796 23.9993C134.234 22.9458 133.953 21.6851 133.953 20.2173C133.953 18.8087 134.237 17.5777 134.805 16.5241C135.373 15.4706 136.175 14.6509 137.211 14.065C138.247 13.479 139.469 13.1861 140.877 13.1861C141.907 13.1861 142.839 13.3459 143.674 13.6655C144.509 13.9851 145.222 14.4497 145.814 15.0593C146.405 15.663 146.861 16.3969 147.181 17.261C147.5 18.1251 147.66 19.0987 147.66 20.1818V21.3182H135.48V18.6193H143.15C143.144 18.2287 143.044 17.8854 142.848 17.5895C142.659 17.2876 142.402 17.0539 142.076 16.8881C141.756 16.7165 141.392 16.6307 140.984 16.6307C140.587 16.6307 140.223 16.7165 139.892 16.8881C139.561 17.0539 139.294 17.2847 139.093 17.5806C138.898 17.8765 138.794 18.2228 138.782 18.6193V21.5312C138.782 21.9692 138.874 22.3598 139.058 22.7031C139.241 23.0464 139.504 23.3157 139.848 23.511C140.191 23.7063 140.605 23.804 141.091 23.804C141.428 23.804 141.736 23.7566 142.014 23.6619C142.298 23.5672 142.541 23.4311 142.742 23.2536C142.943 23.0701 143.091 22.8511 143.186 22.5966H147.66C147.506 23.5436 147.142 24.3662 146.568 25.0646C145.994 25.7571 145.234 26.2957 144.287 26.6804C143.346 27.0592 142.245 27.2486 140.984 27.2486ZM149.66 27V13.3636H154.418V15.956H154.56C154.809 14.9972 155.203 14.2958 155.741 13.8519C156.286 13.408 156.922 13.1861 157.65 13.1861C157.863 13.1861 158.073 13.2038 158.28 13.2393C158.493 13.2689 158.698 13.3133 158.893 13.3725V17.554C158.65 17.4711 158.351 17.409 157.996 17.3675C157.641 17.3261 157.336 17.3054 157.082 17.3054C156.602 17.3054 156.17 17.4149 155.786 17.6339C155.407 17.8469 155.108 18.1488 154.889 18.5394C154.67 18.9241 154.56 19.3769 154.56 19.8977V27H149.66Z" fill="black"/>
<path d="M176.188 5.99929V30.2667H168.623V27.2081H172.238V9.04829H168.623V5.99929H176.188ZM185.386 17.4091L185.625 13.6985L182.519 15.7791L181.234 13.5163L184.58 11.8864L181.234 10.2564L182.519 7.99361L185.625 10.0742L185.386 6.36364H187.965L187.715 10.0742L190.822 7.99361L192.107 10.2564L188.77 11.8864L192.107 13.5163L190.822 15.7791L187.715 13.6985L187.965 17.4091H185.386Z" fill="black"/>
</svg>
