<svg width="231" height="44" viewBox="0 0 231 44" fill="none" xmlns="http://www.w3.org/2000/svg">
<path d="M3.49219 37.2148V7.55469H12.7383V11.2812H8.32031V33.4766H12.7383V37.2148H3.49219Z" fill="white"/>
<rect x="19" y="14" width="174" height="16" fill="#FF7DFF" fill-opacity="0.5"/>
<path d="M30.3295 11.1818V33H24.4062V11.1818H30.3295ZM39.1026 23.7955V33H33.2219V16.6364H38.8043V19.7472H38.9748C39.3299 18.7102 39.9549 17.897 40.8498 17.3075C41.7518 16.718 42.8029 16.4233 44.0032 16.4233C45.1609 16.4233 46.1658 16.6896 47.0181 17.2223C47.8775 17.7479 48.5415 18.4723 49.0103 19.3956C49.4862 20.3189 49.7205 21.3736 49.7134 22.5597V33H43.8327V23.7955C43.8398 22.9858 43.6339 22.3501 43.2148 21.8885C42.8029 21.4268 42.2276 21.196 41.489 21.196C41.006 21.196 40.5835 21.3026 40.2212 21.5156C39.8661 21.7216 39.5927 22.0199 39.4009 22.4105C39.2092 22.794 39.1097 23.2557 39.1026 23.7955ZM62.4176 16.6364V20.8977H51.4659V16.6364H62.4176ZM53.554 33V16.1676C53.554 14.8182 53.7955 13.6996 54.2784 12.8118C54.7614 11.924 55.4432 11.2599 56.3239 10.8196C57.2045 10.3793 58.2415 10.1591 59.4347 10.1591C60.1804 10.1591 60.9048 10.2159 61.608 10.3295C62.3182 10.4432 62.8438 10.5426 63.1847 10.6278L62.3324 14.8466C62.1193 14.7827 61.8707 14.733 61.5866 14.6974C61.3026 14.6548 61.054 14.6335 60.8409 14.6335C60.2869 14.6335 59.9141 14.7507 59.7223 14.9851C59.5305 15.2195 59.4347 15.5284 59.4347 15.9119V33H53.554ZM72.0723 33.2983C70.2967 33.2983 68.7768 32.9467 67.5126 32.2436C66.2484 31.5334 65.2789 30.5462 64.6042 29.282C63.9295 28.0107 63.5922 26.5369 63.5922 24.8608C63.5922 23.1847 63.9295 21.7145 64.6042 20.4503C65.2789 19.179 66.2484 18.1918 67.5126 17.4886C68.7768 16.7784 70.2967 16.4233 72.0723 16.4233C73.8478 16.4233 75.3677 16.7784 76.6319 17.4886C77.8961 18.1918 78.8656 19.179 79.5403 20.4503C80.215 21.7145 80.5524 23.1847 80.5524 24.8608C80.5524 26.5369 80.215 28.0107 79.5403 29.282C78.8656 30.5462 77.8961 31.5334 76.6319 32.2436C75.3677 32.9467 73.8478 33.2983 72.0723 33.2983ZM72.1149 28.9517C72.612 28.9517 73.0417 28.7848 73.4039 28.451C73.7662 28.1172 74.0467 27.6413 74.2456 27.0234C74.4444 26.4055 74.5439 25.6705 74.5439 24.8182C74.5439 23.9588 74.4444 23.2237 74.2456 22.6129C74.0467 21.995 73.7662 21.5192 73.4039 21.1854C73.0417 20.8516 72.612 20.6847 72.1149 20.6847C71.5893 20.6847 71.1383 20.8516 70.7619 21.1854C70.3855 21.5192 70.0978 21.995 69.899 22.6129C69.7001 23.2237 69.6007 23.9588 69.6007 24.8182C69.6007 25.6705 69.7001 26.4055 69.899 27.0234C70.0978 27.6413 70.3855 28.1172 70.7619 28.451C71.1383 28.7848 71.5893 28.9517 72.1149 28.9517ZM82.8535 11.1818H90.2257L95.2967 23.5398H95.5524L100.623 11.1818H107.996V33H102.2V20.3864H102.03L97.1717 32.8295H93.6774L88.8194 20.3011H88.649V33H82.8535V11.1818ZM115.448 33.2557C114.404 33.2557 113.48 33.0852 112.678 32.7443C111.882 32.3963 111.257 31.8707 110.803 31.1676C110.348 30.4645 110.121 29.5696 110.121 28.483C110.121 27.5881 110.274 26.8246 110.579 26.1925C110.884 25.5533 111.311 25.0312 111.857 24.6264C112.404 24.2216 113.04 23.9126 113.764 23.6996C114.496 23.4865 115.284 23.348 116.129 23.2841C117.046 23.2131 117.781 23.1278 118.335 23.0284C118.896 22.9219 119.301 22.7763 119.549 22.5916C119.798 22.3999 119.922 22.1477 119.922 21.8352V21.7926C119.922 21.3665 119.759 21.0398 119.432 20.8125C119.105 20.5852 118.686 20.4716 118.175 20.4716C117.614 20.4716 117.156 20.5959 116.801 20.8445C116.453 21.0859 116.243 21.4588 116.172 21.9631H110.76C110.831 20.9687 111.147 20.0526 111.708 19.2145C112.276 18.3693 113.104 17.6946 114.191 17.1903C115.277 16.679 116.634 16.4233 118.26 16.4233C119.432 16.4233 120.483 16.5618 121.414 16.8388C122.344 17.1087 123.136 17.4886 123.789 17.9787C124.443 18.4616 124.94 19.0298 125.281 19.6832C125.629 20.3295 125.803 21.0327 125.803 21.7926V33H120.306V30.6989H120.178C119.851 31.3097 119.453 31.8033 118.985 32.1797C118.523 32.5561 117.994 32.8295 117.397 33C116.808 33.1705 116.158 33.2557 115.448 33.2557ZM117.365 29.5483C117.813 29.5483 118.232 29.456 118.622 29.2713C119.02 29.0866 119.343 28.8203 119.592 28.4723C119.84 28.1243 119.965 27.7017 119.965 27.2045V25.8409C119.808 25.9048 119.642 25.9652 119.464 26.022C119.294 26.0788 119.109 26.1321 118.91 26.1818C118.718 26.2315 118.512 26.2777 118.292 26.3203C118.079 26.3629 117.855 26.402 117.621 26.4375C117.166 26.5085 116.794 26.6257 116.502 26.7891C116.218 26.9453 116.005 27.1406 115.863 27.375C115.728 27.6023 115.661 27.858 115.661 28.142C115.661 28.5966 115.82 28.9446 116.14 29.1861C116.46 29.4276 116.868 29.5483 117.365 29.5483ZM128.613 33V16.6364H134.323V19.7472H134.493C134.792 18.5966 135.264 17.755 135.91 17.2223C136.564 16.6896 137.327 16.4233 138.201 16.4233C138.456 16.4233 138.708 16.4446 138.957 16.4872C139.213 16.5227 139.458 16.576 139.692 16.647V21.6648C139.401 21.5653 139.042 21.4908 138.616 21.4411C138.19 21.3913 137.824 21.3665 137.519 21.3665C136.944 21.3665 136.425 21.4979 135.963 21.7607C135.509 22.0163 135.15 22.3786 134.887 22.8473C134.625 23.3089 134.493 23.8523 134.493 24.4773V33H128.613ZM146.904 29.1222L146.947 22.1335H147.714L151.677 16.6364H158.282L151.635 25.2017H149.973L146.904 29.1222ZM141.62 33V11.1818H147.501V33H141.62ZM151.72 33L147.97 26.5227L151.805 22.3466L158.453 33H151.72ZM166.981 33.2983C165.234 33.2983 163.728 32.9645 162.464 32.2969C161.207 31.6222 160.237 30.6562 159.555 29.3991C158.881 28.1349 158.543 26.6222 158.543 24.8608C158.543 23.1705 158.884 21.6932 159.566 20.429C160.248 19.1648 161.21 18.1811 162.453 17.478C163.696 16.7749 165.163 16.4233 166.853 16.4233C168.089 16.4233 169.207 16.6151 170.209 16.9986C171.21 17.3821 172.066 17.9396 172.776 18.6712C173.487 19.3956 174.033 20.2763 174.417 21.3132C174.8 22.3501 174.992 23.5185 174.992 24.8182V26.1818H160.376V22.9432H169.58C169.573 22.4744 169.452 22.0625 169.218 21.7074C168.991 21.3452 168.682 21.0646 168.291 20.8658C167.908 20.6598 167.471 20.5568 166.981 20.5568C166.505 20.5568 166.068 20.6598 165.67 20.8658C165.273 21.0646 164.953 21.3416 164.712 21.6967C164.477 22.0518 164.353 22.4673 164.339 22.9432V26.4375C164.339 26.9631 164.449 27.4318 164.669 27.8438C164.889 28.2557 165.205 28.5788 165.617 28.8132C166.029 29.0476 166.526 29.1648 167.109 29.1648C167.513 29.1648 167.883 29.108 168.217 28.9943C168.558 28.8807 168.849 28.7173 169.09 28.5043C169.332 28.2841 169.509 28.0213 169.623 27.7159H174.992C174.808 28.8523 174.371 29.8395 173.682 30.6776C172.993 31.5085 172.08 32.1548 170.944 32.6165C169.815 33.071 168.494 33.2983 166.981 33.2983ZM177.392 33V16.6364H183.102V19.7472H183.273C183.571 18.5966 184.043 17.755 184.689 17.2223C185.343 16.6896 186.106 16.4233 186.98 16.4233C187.236 16.4233 187.488 16.4446 187.736 16.4872C187.992 16.5227 188.237 16.576 188.471 16.647V21.6648C188.18 21.5653 187.822 21.4908 187.395 21.4411C186.969 21.3913 186.604 21.3665 186.298 21.3665C185.723 21.3665 185.204 21.4979 184.743 21.7607C184.288 22.0163 183.93 22.3786 183.667 22.8473C183.404 23.3089 183.273 23.8523 183.273 24.4773V33H177.392Z" fill="white"/>
<path d="M208.008 7.55469V37.2148H198.762V33.4766H203.18V11.2812H198.762V7.55469H208.008ZM219.249 21.5L219.542 16.9648L215.745 19.5078L214.175 16.7422L218.265 14.75L214.175 12.7578L215.745 9.99219L219.542 12.5352L219.249 8H222.401L222.097 12.5352L225.894 9.99219L227.464 12.7578L223.386 14.75L227.464 16.7422L225.894 19.5078L222.097 16.9648L222.401 21.5H219.249Z" fill="white"/>
</svg>
